<mxfile host="app.diagrams.net" agent="Mozilla/5.0 (Windows NT 10.0; Win64; x64) AppleWebKit/537.36 (KHTML, like Gecko) Chrome/130.0.0.0 Safari/537.36 Edg/130.0.0.0" version="24.8.4">
  <diagram id="-4mMuEyHj71tl7QMXauR" name="Страница — 1">
    <mxGraphModel dx="1053" dy="582" grid="1" gridSize="10" guides="1" tooltips="1" connect="1" arrows="1" fold="1" page="1" pageScale="1" pageWidth="827" pageHeight="1169" math="0" shadow="0">
      <root>
        <mxCell id="0" />
        <mxCell id="1" parent="0" />
        <mxCell id="VVrjhUK9VfiNluC-pyEL-1" value="Start" style="strokeWidth=2;html=1;shape=mxgraph.flowchart.start_1;whiteSpace=wrap;fontFamily=Times New Roman;fontSize=14;" parent="1" vertex="1">
          <mxGeometry x="370" y="40" width="100" height="60" as="geometry" />
        </mxCell>
        <mxCell id="VVrjhUK9VfiNluC-pyEL-2" value="input x" style="shape=parallelogram;html=1;strokeWidth=2;perimeter=parallelogramPerimeter;whiteSpace=wrap;rounded=1;arcSize=12;size=0.23;fontFamily=Times New Roman;fontSize=14;" parent="1" vertex="1">
          <mxGeometry x="370" y="160" width="100" height="60" as="geometry" />
        </mxCell>
        <mxCell id="VVrjhUK9VfiNluC-pyEL-3" value="&lt;span style=&quot;font-size: 14px;&quot;&gt;𝑦 = (|𝑥| + 𝑠𝑖𝑛²𝑥 - 3) / 5𝑥³&lt;/span&gt;" style="rounded=1;whiteSpace=wrap;html=1;absoluteArcSize=1;arcSize=14;strokeWidth=2;fontFamily=Times New Roman;fontSize=14;" parent="1" vertex="1">
          <mxGeometry x="370" y="280" width="100" height="100" as="geometry" />
        </mxCell>
        <mxCell id="VVrjhUK9VfiNluC-pyEL-6" value="" style="endArrow=classic;html=1;rounded=0;exitX=0.5;exitY=1;exitDx=0;exitDy=0;exitPerimeter=0;entryX=0.5;entryY=0;entryDx=0;entryDy=0;fontFamily=Times New Roman;fontSize=14;" parent="1" source="VVrjhUK9VfiNluC-pyEL-1" target="VVrjhUK9VfiNluC-pyEL-2" edge="1">
          <mxGeometry width="50" height="50" relative="1" as="geometry">
            <mxPoint x="390" y="300" as="sourcePoint" />
            <mxPoint x="440" y="250" as="targetPoint" />
          </mxGeometry>
        </mxCell>
        <mxCell id="VVrjhUK9VfiNluC-pyEL-7" value="" style="endArrow=classic;html=1;rounded=0;exitX=0.5;exitY=1;exitDx=0;exitDy=0;entryX=0.5;entryY=0;entryDx=0;entryDy=0;fontFamily=Times New Roman;fontSize=14;" parent="1" source="VVrjhUK9VfiNluC-pyEL-2" target="VVrjhUK9VfiNluC-pyEL-3" edge="1">
          <mxGeometry width="50" height="50" relative="1" as="geometry">
            <mxPoint x="390" y="300" as="sourcePoint" />
            <mxPoint x="440" y="250" as="targetPoint" />
          </mxGeometry>
        </mxCell>
        <mxCell id="VVrjhUK9VfiNluC-pyEL-10" value="end" style="strokeWidth=2;html=1;shape=mxgraph.flowchart.start_1;whiteSpace=wrap;fontFamily=Times New Roman;fontSize=14;" parent="1" vertex="1">
          <mxGeometry x="370" y="560" width="100" height="60" as="geometry" />
        </mxCell>
        <mxCell id="VVrjhUK9VfiNluC-pyEL-11" value="" style="endArrow=classic;html=1;rounded=0;exitX=0.5;exitY=1;exitDx=0;exitDy=0;entryX=0.5;entryY=0;entryDx=0;entryDy=0;entryPerimeter=0;fontFamily=Times New Roman;fontSize=14;" parent="1" source="VVrjhUK9VfiNluC-pyEL-3" edge="1">
          <mxGeometry width="50" height="50" relative="1" as="geometry">
            <mxPoint x="390" y="460" as="sourcePoint" />
            <mxPoint x="420" y="440" as="targetPoint" />
          </mxGeometry>
        </mxCell>
        <mxCell id="VVrjhUK9VfiNluC-pyEL-15" value="" style="edgeStyle=orthogonalEdgeStyle;rounded=0;orthogonalLoop=1;jettySize=auto;html=1;fontFamily=Times New Roman;fontSize=14;" parent="1" source="VVrjhUK9VfiNluC-pyEL-14" target="VVrjhUK9VfiNluC-pyEL-10" edge="1">
          <mxGeometry relative="1" as="geometry" />
        </mxCell>
        <mxCell id="VVrjhUK9VfiNluC-pyEL-14" value="output y" style="shape=parallelogram;html=1;strokeWidth=2;perimeter=parallelogramPerimeter;whiteSpace=wrap;rounded=1;arcSize=12;size=0.23;fontFamily=Times New Roman;fontSize=14;" parent="1" vertex="1">
          <mxGeometry x="370" y="440" width="100" height="60" as="geometry" />
        </mxCell>
      </root>
    </mxGraphModel>
  </diagram>
</mxfile>
